<?xml version="1.0" encoding="utf-8"?>
<!-- Generator: Adobe Illustrator 16.0.0, SVG Export Plug-In . SVG Version: 6.00 Build 0)  -->
<!DOCTYPE svg PUBLIC "-//W3C//DTD SVG 1.1//EN" "http://www.w3.org/Graphics/SVG/1.1/DTD/svg11.dtd">
<svg version="1.1" xmlns="http://www.w3.org/2000/svg" xmlns:xlink="http://www.w3.org/1999/xlink" x="0px" y="0px"
	 width="496.375px" height="343.321px" viewBox="0 0 496.375 343.321" enable-background="new 0 0 496.375 343.321"
	 xml:space="preserve">
<g id="Layer_1" display="none">
	<g display="inline">
		<path fill-rule="evenodd" clip-rule="evenodd" fill="#0A0A0B" d="M235.996,69.261c12.724-0.274,25.359-0.427,37.983-0.893
			c3.424-0.126,4.297,0.669,4.307,4.244c0.225,78.88,0.604,157.761,0.965,236.641c0.128,27.627,0.241,55.252,0.49,82.875
			c0.029,3.203-0.469,4.879-4.192,4.477c-3.614-0.393-8.601,1.131-10.554-0.733c-1.869-1.784-0.711-6.843-0.714-10.464
			c-0.061-99.014-0.116-198.027-0.062-297.041c0.002-3.271-0.289-4.577-4.092-4.206c-6.783,0.663-13.633,0.812-20.456,0.834
			c-2.888,0.008-3.917,0.419-3.905,3.741c0.168,46.26,0.145,92.52,0.172,138.778c0.016,27.293,0.004,54.585,0.113,81.877
			c0.011,2.638-0.381,3.927-3.421,3.673c-3.796-0.317-8.778,1.247-11.13-0.641c-2.422-1.945-0.781-7.145-0.793-10.904
			c-0.306-88.865-0.538-177.73-0.799-266.595c-0.051-17.635-0.014-35.273-0.381-52.901c-0.075-3.62,1.494-3.582,4.006-3.675
			c31.615-1.187,63.229-2.431,94.844-3.642c15.803-0.605,31.613-1.088,47.408-1.837c3.131-0.148,4.234,0.355,4.232,3.81
			c-0.02,96.856,0.074,193.711,0.152,290.565c0.009,10.316-0.011,20.634,0.084,30.949c0.022,2.362-0.278,3.316-3.206,3.367
			c-12.479,0.217-12.513,0.379-12.526-12.012c-0.107-97.839-0.199-195.677-0.297-293.514c-0.007-6.769-0.01-6.797-6.807-6.574
			c-36.104,1.183-72.207,2.438-108.314,3.484c-3.564,0.103-4.515,1.037-3.957,4.486c0.582,3.596-0.716,9.047,1.204,10.483
			c2.423,1.814,7.274,0.46,11.073,0.34c29.117-0.917,58.234-1.792,87.345-2.895c3.6-0.135,4.307,0.867,4.302,4.263
			c-0.091,49.753-0.08,99.507-0.011,149.261c0.069,49.597,0.231,99.193,0.362,148.789c0.02,7.314-0.047,14.633,0.213,21.939
			c0.104,2.92-0.881,3.52-3.617,3.553c-11.511,0.143-11.503,0.236-11.543-11.492c-0.328-93.867-0.659-187.733-0.984-281.599
			c-0.019-5.322-0.141-10.651,0.066-15.964c0.107-2.744-0.514-3.523-3.468-3.406c-21.125,0.829-42.259,1.426-63.392,2.089
			c-6.156,0.194-12.312,0.461-18.471,0.494c-2.333,0.013-3.242,0.544-2.965,3.093c0.431,3.956-0.994,9.208,1.061,11.593
			c2.197,2.549,7.547,0.493,11.497,0.394c18.972-0.473,37.942-1.099,56.903-1.902c3.136-0.133,3.855,0.602,3.854,3.677
			c-0.018,65.056,0.068,130.112,0.143,195.169c0.047,41.586,0.035,83.174,0.274,124.76c0.022,4.16-1.309,4.779-4.973,4.666
			c-9.671-0.298-9.749-0.137-9.79-9.861c-0.354-84.031-0.676-168.063-1.016-252.096c-0.062-15.31-0.228-30.621-0.188-45.93
			c0.009-3.207-0.367-4.506-4.287-4.343c-16.297,0.682-32.614,0.933-48.927,1.136c-3.092,0.038-4.528,0.423-4.066,4.038
			C236.229,61.444,235.944,65.309,235.996,69.261z"/>
		<path fill-rule="evenodd" clip-rule="evenodd" fill="#0B0B0B" d="M174.544,375.458c-1.462,1.265-3.033,0.561-4.427,0.6
			c-11.049,0.313-10.921,0.273-10.944-10.85c-0.153-71.062-0.374-142.127-0.561-213.189c-0.096-35.951-0.133-71.9-0.33-107.851
			c-0.014-2.366,0.791-2.589,2.705-2.734c13.52-1.021,13.468-1.055,13.483,12.64c0.111,93.36,0.256,186.72,0.358,280.078
			c0.014,12.812-0.145,25.622-0.227,38.433C174.597,373.566,174.563,374.546,174.544,375.458z"/>
		<path fill-rule="evenodd" clip-rule="evenodd" fill="#0B0B0B" d="M204.579,9.529c0.056,1.381,0.151,2.653,0.154,3.926
			c0.101,43.752,0.229,87.506,0.278,131.26c0.068,60.741,0.073,121.481,0.12,182.221c0.004,3.161,0.324,6.331,0.172,9.481
			c-0.129,2.681,1.328,7.071-0.93,7.702c-4.159,1.164-8.9,0.514-13.363,0.164c-1.34-0.104-0.742-2.174-0.748-3.32
			c-0.158-28.942-0.287-57.887-0.371-86.831c-0.214-73.866-0.398-147.733-0.611-221.6c-0.02-6.489-0.069-12.981-0.332-19.463
			c-0.096-2.362,0.383-3.211,2.933-3.126c3.481,0.117,6.979-0.308,10.47-0.479C202.999,9.432,203.649,9.5,204.579,9.529z"/>
		<path fill-rule="evenodd" clip-rule="evenodd" fill="#0B0B0B" d="M144.667,407.164c-0.658,1.009-1.52,0.675-2.314,0.747
			c-12.285,1.097-12.26,1.104-12.268-11.032c-0.066-103.018-0.141-206.035-0.217-309.053c-0.001-1.665-0.008-3.33-0.08-4.993
			c-0.398-9.259-0.369-8.913,8.629-9.829c4.459-0.455,5.059,0.927,5.064,4.856c0.109,71.887,0.362,143.774,0.558,215.661
			c0.083,30.949,0.083,61.898,0.172,92.85c0.017,6.15,0.263,12.303,0.403,18.453C144.632,405.653,144.652,406.481,144.667,407.164z"
			/>
	</g>
</g>
<g id="Layer_2">
	
		<polyline display="none" fill-rule="evenodd" clip-rule="evenodd" fill="none" stroke="#69BD45" stroke-width="16" stroke-miterlimit="10" points="
		169.688,375.661 169.688,45.661 304.688,45.661 304.688,363.877 	"/>
	
		<polyline display="none" fill-rule="evenodd" clip-rule="evenodd" fill="none" stroke="#69BD45" stroke-width="16" stroke-miterlimit="10" points="
		201.688,343.661 201.688,13.661 336.688,13.661 336.688,331.877 	"/>
	
		<polyline display="none" fill-rule="evenodd" clip-rule="evenodd" fill="none" stroke="#69BD45" stroke-width="16" stroke-miterlimit="10" points="
		233.688,311.661 233.688,-18.339 368.688,-18.339 368.688,299.877 	"/>
	<g>
		<g>
			<rect x="55.769" y="114.649" transform="matrix(0.766 -0.6428 0.6428 0.766 -26.2509 173.1724)" width="338" height="15.999"/>
			<rect x="10.687" y="110.705" transform="matrix(0.766 -0.6428 0.6428 0.766 -34.2629 143.272)" width="338" height="15.999"/>
			<polyline points="269.208,12.257 10.285,229.518 0,217.262 258.924,0 			"/>
		</g>
		<polygon points="330.916,85.797 343.172,75.513 383.668,123.773 146.028,323.176 156.312,335.434 406.209,125.745 355.429,65.228 
			367.686,54.943 428.75,127.718 191.11,327.122 201.395,339.377 451.292,129.69 379.942,44.659 392.199,34.374 473.833,131.662 
			236.193,331.065 246.479,343.321 496.375,133.634 394.171,11.833 135.248,229.094 145.533,241.352 318.658,96.081 
			338.586,119.829 100.945,319.233 111.229,331.489 361.127,121.802 		"/>
	</g>
</g>
</svg>
